<?xml version="1.0" standalone="no"?><!DOCTYPE svg PUBLIC "-//W3C//DTD SVG 1.1//EN" "http://www.w3.org/Graphics/SVG/1.1/DTD/svg11.dtd"><svg t="1539230292758" class="icon" style="" viewBox="0 0 1024 1024" version="1.1" xmlns="http://www.w3.org/2000/svg" p-id="522" xmlns:xlink="http://www.w3.org/1999/xlink" width="200" height="200"><defs><style type="text/css"></style></defs><path d="M230.222222 300.641975a218.567901 218.567901 0 0 0 0 309.234568l309.234568 309.234568V300.641975a218.567901 218.567901 0 0 0-309.234568 0z" fill="#FF6B5B" p-id="523"></path><path d="M848.790123 300.641975a218.666667 218.666667 0 0 0-309.333333 0v618.469136l309.333333-309.234568a218.666667 218.666667 0 0 0 0-309.234568z" fill="#DC4E45" p-id="524"></path><path d="M276.54321 550.814815a22.024691 22.024691 0 0 1-18.271605-9.876543 152.691358 152.691358 0 0 1 112.197531-237.62963 22.024691 22.024691 0 1 1 4.049383 43.851852 107.358025 107.358025 0 0 0-66.469136 31.308642 108.641975 108.641975 0 0 0-12.938272 138.271605A22.123457 22.123457 0 0 1 276.54321 550.814815z m71.506173 52.740741a22.123457 22.123457 0 0 0 0-31.209877l-2.370371-3.259259a22.024691 22.024691 0 0 0-31.111111 31.209876l3.259259 3.25926a21.925926 21.925926 0 0 0 15.506173 6.419753 22.320988 22.320988 0 0 0 15.111111-6.419753z" fill="#FFA99F" p-id="525"></path></svg>