<?xml version="1.0" standalone="no"?><!DOCTYPE svg PUBLIC "-//W3C//DTD SVG 1.1//EN" "http://www.w3.org/Graphics/SVG/1.1/DTD/svg11.dtd"><svg t="1542016536693" class="icon" style="" viewBox="0 0 1024 1024" version="1.1" xmlns="http://www.w3.org/2000/svg" p-id="2160" xmlns:xlink="http://www.w3.org/1999/xlink" width="200" height="200"><defs><style type="text/css"></style></defs><path d="M185.6 245.333333l-1.066667 4.266667c0 1.066667-2.133333 2.133333-3.2 2.133333l-66.133333-21.333333c-1.066667 0-2.133333-2.133333-2.133333-3.2l1.066666-4.266667c0-1.066667 2.133333-2.133333 3.2-2.133333l66.133334 21.333333c2.133333 0 2.133333 2.133333 2.133333 3.2z" fill="#71BCFF" p-id="2161"></path><path d="M140.8 272l-4.266667-1.066667c-1.066667 0-2.133333-2.133333-2.133333-3.2l21.333333-66.133333c0-1.066667 2.133333-2.133333 3.2-2.133333l4.266667 1.066666c1.066667 0 2.133333 2.133333 2.133333 3.2l-21.333333 66.133334c-1.066667 2.133333-2.133333 3.2-3.2 2.133333zM801.066667 234.666667c0 1.066667-2.133333 2.133333-3.2 2.133333l-32-10.666667c-1.066667 0-2.133333-2.133333-2.133334-3.2 0-1.066667 2.133333-2.133333 3.2-2.133333l32 10.666667c2.133333 0 2.133333 2.133333 2.133334 3.2z" fill="#71BCFF" p-id="2162"></path><path d="M776.533333 247.466667c-1.066667 0-2.133333-2.133333-2.133333-3.2l10.666667-32c0-1.066667 2.133333-2.133333 3.2-2.133334 1.066667 0 2.133333 2.133333 2.133333 3.2l-10.666667 32c-1.066667 2.133333-2.133333 3.2-3.2 2.133334zM105.6 946.133333c0 1.066667-2.133333 2.133333-3.2 2.133334L71.466667 938.666667c-1.066667 0-2.133333-2.133333-2.133334-3.2 0-1.066667 2.133333-2.133333 3.2-2.133334l30.933334 9.6c2.133333 0 3.2 1.066667 2.133333 3.2z" fill="#71BCFF" p-id="2163"></path><path d="M82.133333 957.866667c-1.066667 0-2.133333-2.133333-2.133333-3.2l9.6-30.933334c0-1.066667 2.133333-2.133333 3.2-2.133333 1.066667 0 2.133333 2.133333 2.133333 3.2L85.333333 955.733333c0 2.133333-1.066667 2.133333-3.2 2.133334z" fill="#71BCFF" p-id="2164"></path><path d="M265.6 235.733333m-14.933333 0a14.933333 14.933333 0 1 0 29.866666 0 14.933333 14.933333 0 1 0-29.866666 0Z" fill="#71BCFF" p-id="2165"></path><path d="M214.4 152.533333m-30.933333 0a30.933333 30.933333 0 1 0 61.866666 0 30.933333 30.933333 0 1 0-61.866666 0Z" fill="#71BCFF" p-id="2166"></path><path d="M152.533333 958.933333m-16 0a16 16 0 1 0 32 0 16 16 0 1 0-32 0Z" fill="#71BCFF" p-id="2167"></path><path d="M842.666667 166.4m-11.733334 0a11.733333 11.733333 0 1 0 23.466667 0 11.733333 11.733333 0 1 0-23.466667 0Z" fill="#71BCFF" p-id="2168"></path><path d="M812.8 407.466667H606.933333c17.066667-37.333333 60.8-208-40.533333-260.266667-100.266667-52.266667-100.266667 74.666667-100.266667 74.666667-2.133333 177.066667-96 210.133333-134.4 216.533333V814.933333c0 8.533333-7.466667 16-16 16s-16-7.466667-16-16v-373.333333h-94.933333c-29.866667 0-53.333333 23.466667-53.333333 53.333333v350.933334c0 29.866667 23.466667 53.333333 53.333333 53.333333H725.333333c99.2 0 112-64 112-64S896 597.333333 914.133333 505.6c17.066667-91.733333-101.333333-98.133333-101.333333-98.133333z" fill="#71BCFF" p-id="2169"></path><path d="M866.133333 409.6c-32-40.533333-97.066667-44.8-101.333333-44.8H582.4c18.133333-60.8 43.733333-206.933333-55.466667-258.133333-33.066667-17.066667-60.8-19.2-83.2-5.333334-39.466667 24.533333-40.533333 87.466667-40.533333 93.866667-2.133333 199.466667-125.866667 202.666667-133.333333 202.666667h-78.933334c-38.4 0-69.333333 30.933333-69.333333 69.333333v350.933333c0 38.4 30.933333 69.333333 69.333333 69.333334h487.466667c110.933333 0 126.933333-73.6 128-76.8 1.066667-2.133333 59.733333-238.933333 76.8-330.666667 4.266667-25.6-1.066667-50.133333-17.066667-70.4z m-16 67.2c-17.066667 90.666667-75.733333 326.4-75.733333 328.533333 0 2.133333-12.8 51.2-96 51.2H190.933333c-20.266667 0-37.333333-17.066667-37.333333-37.333333V468.266667c0-20.266667 17.066667-37.333333 37.333333-37.333334h94.933334V789.333333c0 8.533333 7.466667 16 16 16s16-7.466667 16-16V421.333333c16-6.4 35.2-17.066667 53.333333-34.133333 42.666667-40.533333 64-104.533333 65.066667-190.933333 0-13.866667 4.266667-54.4 25.6-67.2 11.733333-7.466667 29.866667-5.333333 52.266666 6.4 86.4 44.8 50.133333 201.6 33.066667 238.933333-2.133333 5.333333-2.133333 10.666667 1.066667 14.933333 3.2 4.266667 8.533333 7.466667 13.866666 7.466667h204.8c14.933333 1.066667 57.6 7.466667 76.8 32 7.466667 13.866667 10.666667 28.8 6.4 48z" fill="#3A3A3A" p-id="2170"></path></svg>