<?xml version="1.0" standalone="no"?><!DOCTYPE svg PUBLIC "-//W3C//DTD SVG 1.1//EN" "http://www.w3.org/Graphics/SVG/1.1/DTD/svg11.dtd"><svg t="1539073147364" class="icon" style="" viewBox="0 0 1024 1024" version="1.1" xmlns="http://www.w3.org/2000/svg" p-id="5721" xmlns:xlink="http://www.w3.org/1999/xlink" width="200" height="200"><defs><style type="text/css"></style></defs><path d="M246.21875 905.22265625c-13.271484375 0-26.54296875-3.515625-38.583984375-10.458984375-24.2578125-13.974609375-38.671875-39.0234375-38.671875-66.97265625V376.6484375c0-9.228515625 7.470703125-16.69921875 16.69921875-16.69921875s16.69921875 7.470703125 16.69921875 16.69921875v451.14257812499994c0 15.8203125 8.26171875 30.05859375 21.97265625 37.96875 13.7109375 7.998046875 30.146484375 7.91015625 43.857421875 0l545.625-316.0546875c14.23828125-8.26171875 22.412109375-22.939453125 21.884765625-39.287109375-0.52734375-16.435546875-9.580078125-30.5859375-24.2578125-37.880859375L163.337890625 149.36328125c-8.26171875-4.130859375-11.6015625-14.150390625000002-7.470703125-22.412109375 4.130859375-8.26171875 14.23828125-11.6015625 22.412109375-7.470703125L826.384765625 442.56640625c25.83984375 12.919921875 41.8359375 37.880859375 42.802734375 66.796875 0.87890625 28.916015625-13.53515625 54.755859375-38.49609375 69.2578125L284.978515625 894.67578125c-12.12890625 7.03125-25.400390625 10.546875-38.759765625 10.546875z" p-id="5722"></path></svg>