<?xml version="1.0" standalone="no"?><!DOCTYPE svg PUBLIC "-//W3C//DTD SVG 1.1//EN" "http://www.w3.org/Graphics/SVG/1.1/DTD/svg11.dtd"><svg t="1542017384654" class="icon" style="" viewBox="0 0 1024 1024" version="1.1" xmlns="http://www.w3.org/2000/svg" p-id="1906" xmlns:xlink="http://www.w3.org/1999/xlink" width="200" height="200"><defs><style type="text/css"></style></defs><path d="M890.908 429.534c-20.66-26.05-51.585-40.99-84.84-40.99l-189.34 0c10.34-28.83 17.18-60.165 19.615-90.48 3.785-47.147-3.465-89.02-20.955-121.095-21.53-39.46-58.18-64.072-105.997-71.177-21.662-3.22-40.292 0.945-55.377 12.372-30.495 23.102-36.092 67.065-42.575 117.97-5.182 40.692-11.055 86.817-30.79 119.877-13.172 22.065-38.807 51.397-109.092 51.397l-73.345 0c-48.842 0-88.58 39.722-88.58 88.545l0 334.754c0 48.82 39.737 88.545 88.58 88.545l534.336 0c24.33 0 48.22-8.325 67.275-23.43 19.06-15.11 32.605-36.475 38.145-60.155l73.52-314.264C919.058 489.054 911.553 455.569 890.908 429.534zM168.672 830.708 168.672 495.956c0-16.27 13.252-29.505 29.537-29.505l62.232 0 0 393.762-62.232 0C181.925 860.213 168.672 846.978 168.672 830.708zM853.998 507.956l-73.52 314.272c-5.23 22.36-24.94 37.985-47.93 37.985L319.484 860.213 319.484 462.169c49.877-9.52 87.4-34.92 111.86-75.895 26.05-43.64 32.75-96.257 38.662-142.68 2.67-20.977 5.193-40.79 9.2-55.99 4.297-16.302 8.745-21.08 10.457-22.377 1.96-1.485 5.677-1.835 11.05-1.035 29.615 4.4 50.175 17.83 62.84 41.052 25.99 47.642 14.505 128.052-10.265 182.86-5.93 13.127-4.83 28.167 2.96 40.232 7.78 12.052 21.01 19.247 35.395 19.247l214.424 0c15.125 0 29.185 6.792 38.58 18.637C854.028 478.049 857.438 493.261 853.998 507.956z" p-id="1907"></path></svg>