<?xml version="1.0" standalone="no"?><!DOCTYPE svg PUBLIC "-//W3C//DTD SVG 1.1//EN" "http://www.w3.org/Graphics/SVG/1.1/DTD/svg11.dtd"><svg t="1539160434574" class="icon" style="" viewBox="0 0 1024 1024" version="1.1" xmlns="http://www.w3.org/2000/svg" p-id="871" xmlns:xlink="http://www.w3.org/1999/xlink" width="200" height="200"><defs><style type="text/css"></style></defs><path d="M465.4 421l-43.8 43.8c-62 62-163.4 62-225.4 0L152.4 421c-62-62-62-163.4 0-225.4l43.8-43.8c62-62 163.4-62 225.4 0l43.8 43.8c62 62 62 163.5 0 225.4z" fill="#FDD65D" p-id="872"></path><path d="M308.9 518.5c-49.3 0-95.5-19.1-130.1-53.7l-26.3-26.3c-71.7-71.7-71.7-188.5 0-260.2l26.3-26.3c34.6-34.6 80.8-53.7 130.1-53.7S404.4 117.4 439 152l26.3 26.3C500 212.9 519 259.1 519 308.4s-19.1 95.5-53.7 130.1L439 464.8c-34.6 34.6-80.8 53.7-130.1 53.7z m0-395.8c-40.8 0-81.6 15.5-112.7 46.6l-26.3 26.3c-62.2 62.2-62.2 163.3 0 225.5l26.3 26.3c30 30 70 46.5 112.7 46.5s82.8-16.5 112.7-46.5l26.3-26.3c30-30 46.5-70 46.5-112.7s-16.5-82.8-46.5-112.7l-26.3-26.3c-31-31.2-71.9-46.7-112.7-46.7z" fill="#2D415C" p-id="873"></path><path d="M181.863 446.965L446.248 182.58l17.394 17.395-264.384 264.384z" fill="#2D415C" p-id="874"></path><path d="M790.9 770.9l-19.6 19.6c-30.3 30.3-79.8 30.3-110.1 0L317.4 485.8 486.3 317l304.6 343.8c30.3 30.2 30.3 79.8 0 110.1z" fill="#43D8D6" p-id="875"></path><path d="M716.3 825.4c-24 0-46.5-9.2-63.5-26L299.5 486.3 486.8 299l313.1 353.3c16.8 16.9 26 39.5 26 63.5 0 24.1-9.3 46.8-26.3 63.7L780 799.1c-16.9 17-39.6 26.3-63.7 26.3zM335.4 485.3L670 781.8c12.3 12.3 28.8 19.1 46.4 19.1 17.6 0 34-6.8 46.4-19.1l19.6-19.6c12.3-12.3 19.1-28.8 19.1-46.4 0-17.6-6.8-34-19.1-46.4l-0.5-0.5-296-334-150.5 150.4z" fill="#2D415C" p-id="876"></path><path d="M934.5 928.3c-3.1 0-6.3-1.2-8.7-3.6-4.8-4.8-4.8-12.6 0-17.4 4.2-4.2 6.4-18.8-0.6-34.2-5.4-11.8-19.6-31.3-54.6-28.9-63.2 4.3-88.3-44.2-92.7-70.4-1.1-6.7 3.4-13 10.1-14.2 6.7-1.1 13 3.4 14.2 10 1 5.5 11.2 53.7 66.8 50 35.8-2.4 65.3 13.8 78.7 43.3 10.4 22.9 8.5 48.8-4.4 61.8-2.5 2.4-5.6 3.6-8.8 3.6z" fill="#2D415C" p-id="877"></path><path d="M578.5 532.2l-47 47c-1.4 1.4-3.7 1.4-5.2 0l-96.4-96.4c-1.4-1.4-1.4-3.7 0-5.2l47-47c1.4-1.4 3.7-1.4 5.2 0l96.4 96.4c1.4 1.5 1.4 3.8 0 5.2z" fill="#FDD65D" p-id="878"></path><path d="M528.9 586.7c-7.7 0-15.5-2.9-21.4-8.8l-76.1-76.1c-11.8-11.8-11.8-31 0-42.8l26.8-26.8c5.7-5.7 13.3-8.8 21.4-8.8 8.1 0 15.7 3.1 21.4 8.8l76.1 76.1c11.8 11.8 11.8 31 0 42.8l-26.8 26.8c-5.9 5.8-13.7 8.8-21.4 8.8z m-49.4-138.9c-0.9 0-2.6 0.2-4 1.6l-26.8 26.8c-2.2 2.2-2.2 5.8 0 8l76.1 76.1c2.2 2.2 5.9 2.2 8 0l26.8-26.8c2.2-2.2 2.2-5.8 0-8l-76.1-76.1c-1.4-1.3-3.1-1.6-4-1.6z" fill="#2D415C" p-id="879"></path></svg>