<?xml version="1.0" standalone="no"?><!DOCTYPE svg PUBLIC "-//W3C//DTD SVG 1.1//EN" "http://www.w3.org/Graphics/SVG/1.1/DTD/svg11.dtd"><svg t="1539522528656" class="icon" style="" viewBox="0 0 1024 1024" version="1.1" xmlns="http://www.w3.org/2000/svg" p-id="2064" xmlns:xlink="http://www.w3.org/1999/xlink" width="200" height="200"><defs><style type="text/css"></style></defs><path d="M661.504 182.272c-151.552-126.976-378.88-106.496-507.904 45.056-129.024 153.6-108.544 380.928 43.008 507.904 110.592 92.16 262.144 108.544 391.168 47.104 10.24-4.096 14.336-16.384 10.24-26.624-4.096-10.24-16.384-14.336-26.624-10.24-112.64 55.296-247.808 40.96-346.112-40.96-135.168-112.64-151.552-315.392-38.912-450.56 114.688-135.168 315.392-153.6 450.56-40.96s151.552 315.392 38.912 450.56l-12.288 14.336 14.336 12.288 12.288 12.288 32.768 32.768c34.816 32.768 67.584 67.584 100.352 98.304l2.048 2.048 98.304 98.304c8.192 8.192 20.48 8.192 28.672 0 8.192-8.192 8.192-20.48 0-28.672l-98.304-98.304-2.048-2.048c-30.72-30.72-65.536-65.536-100.352-98.304-12.288-12.288-22.528-22.528-32.768-30.72 112.64-153.6 90.112-370.688-57.344-493.568z" p-id="2065"></path></svg>