<?xml version="1.0" standalone="no"?><!DOCTYPE svg PUBLIC "-//W3C//DTD SVG 1.1//EN" "http://www.w3.org/Graphics/SVG/1.1/DTD/svg11.dtd"><svg t="1539073197825" class="icon" style="" viewBox="0 0 1024 1024" version="1.1" xmlns="http://www.w3.org/2000/svg" p-id="7897" xmlns:xlink="http://www.w3.org/1999/xlink" width="200" height="200"><defs><style type="text/css"></style></defs><path d="M224 288a32 32 0 0 1 0-64h576a32 32 0 0 1 0 64zM224 480a32 32 0 0 1 0-64h576a32 32 0 0 1 0 64zM224 672a32 32 0 0 1 0-64h576a32 32 0 0 1 0 64zM224 864a32 32 0 0 1 0-64h576a32 32 0 0 1 0 64z" p-id="7898"></path></svg>