<?xml version="1.0" standalone="no"?><!DOCTYPE svg PUBLIC "-//W3C//DTD SVG 1.1//EN" "http://www.w3.org/Graphics/SVG/1.1/DTD/svg11.dtd"><svg t="1539072847822" class="icon" style="" viewBox="0 0 1024 1024" version="1.1" xmlns="http://www.w3.org/2000/svg" p-id="4090" xmlns:xlink="http://www.w3.org/1999/xlink" width="200" height="200"><defs><style type="text/css"></style></defs><path d="M76.442058 472.123804l479.972785-344.375282c31.816917-17.080004 68.268577-21.123087 68.295184 44.618197l0 149.899008 271.113573-194.517205c31.815893-17.080004 69.179357-17.590634 68.295184 46.384423l0 676.471912c-0.91078 57.779961-39.127716 66.168002-68.295184 47.295166L624.711051 703.367469l0 148.120502c-0.026607 56.012711-39.127716 65.284889-68.295184 46.411029L76.442058 553.481763C54.339786 531.021216 54.339786 494.597655 76.442058 472.123804zM907.552193 196.359156 568.143437 433.700703c0 0 0-186.833199 0-237.341546L115.598428 512.809435l452.545009 316.465628c0-13.244652 0-237.328243 0-237.328243l339.408757 237.328243C907.552193 816.029388 907.552193 246.867504 907.552193 196.359156z" p-id="4091"></path></svg>