<?xml version="1.0" standalone="no"?><!DOCTYPE svg PUBLIC "-//W3C//DTD SVG 1.1//EN" "http://www.w3.org/Graphics/SVG/1.1/DTD/svg11.dtd"><svg t="1539140852604" class="icon" style="" viewBox="0 0 1024 1024" version="1.1" xmlns="http://www.w3.org/2000/svg" p-id="2059" xmlns:xlink="http://www.w3.org/1999/xlink" width="200" height="200"><defs><style type="text/css"></style></defs><path d="M511.927551 256.181124a214.740059 214.740059 0 0 1 339.063251 175.037781c0 91.576058-54.33706 175.327579-116.933352 238.06877-53.03297 53.177869-128.815056 107.514929-200.684873 131.423235l-17.822556 5.940852a10.577614 10.577614 0 0 1-7.100042 0l-17.822556-5.940852c-72.449413-23.908306-147.651903-78.245366-200.684873-131.423235-62.596293-62.741191-116.933352-146.347814-116.933352-238.06877a214.740059 214.740059 0 0 1 339.063251-175.037781z m0 59.843214a169.531626 169.531626 0 0 0-293.854819 115.919061c0 78.824961 50.134994 152.288666 103.747559 206.04613 47.961511 48.10641 117.947644 98.820999 183.007217 120.555823l7.100043 2.318381 7.100042-2.318381c64.914674-21.734824 135.045705-72.449413 183.007217-120.555823 53.612565-53.757464 103.747559-127.366068 103.747559-206.04613a169.531626 169.531626 0 0 0-293.854818-115.919061z" fill="#3CA3A9" p-id="2060"></path><path d="M636.250743 284.436395a146.927409 146.927409 0 0 1 146.927409 146.927409c0 135.625301-170.401019 271.540399-271.250601 305.156926-101.429178-33.616528-271.250601-169.531626-271.250602-305.156926a146.927409 146.927409 0 0 1 271.250602-78.390265 146.78251 146.78251 0 0 1 124.323192-68.537144z" fill="#D84D32" p-id="2061"></path></svg>