<?xml version="1.0" standalone="no"?><!DOCTYPE svg PUBLIC "-//W3C//DTD SVG 1.1//EN" "http://www.w3.org/Graphics/SVG/1.1/DTD/svg11.dtd"><svg t="1539325986450" class="icon" style="" viewBox="0 0 1024 1024" version="1.1" xmlns="http://www.w3.org/2000/svg" p-id="1063" xmlns:xlink="http://www.w3.org/1999/xlink" width="200" height="200"><defs><style type="text/css"></style></defs><path d="M515.6 81.4c-38.4 0-63.9 33.3-63.9 73.3 0 2.3-0.2 4.4 0 6.6-2 74.8-61.1 135-131.4 143.3l-0.5 349.9H668c12.9 0 20.1-3.4 31.8-11.1 11.2-7.4 19.6-17.6 25.1-29.1 1.5-2.3 54.4-239.8 55.7-253.9 1.1-15-2.2-30.6-10.4-44.4-12.9-21.7-31.7-30.5-54.5-31.4-1.2-0.2-137.5-0.8-137.5-0.8 9-27 11.5-59.1 11.5-89.3 0-19.2-2-38.3-6.1-57h-0.3c-7.2-32.2-34.7-56.1-67.7-56.1zM270.2 305.8h-74c-14.8 0-26.9 12.4-26.9 27.7v293.4c0 15.3 12 27.7 26.9 27.7h74c14.8 0 26.9-12.4 26.9-27.7V333.5c0-15.3-12-27.7-26.9-27.7z m57 348.6h-0.6 0.1c-0.1 0-0.1 0 0 0h0.4c0.1 0 0.1 0 0 0h0.1z" fill="#FFEC00" p-id="1064"></path><path d="M270.2 656.1h-74c-15.6 0-28.4-13.1-28.4-29.2V333.5c0-16.1 12.7-29.2 28.4-29.2h75.5c14.9 0.8 26.9 13.6 26.9 29.2v293.4c0 16.1-12.7 29.2-28.4 29.2z m-74-348.8c-14 0-25.4 11.8-25.4 26.2v293.4c0 14.4 11.4 26.2 25.4 26.2h74c14 0 25.4-11.7 25.4-26.2V333.5c0-14.4-11.4-26.2-25.4-26.2h-74zM327.1 656H325.4v-0.1h-7.2v-1.5l0.5-351.3 1.3-0.2c34.2-4 66.3-20.4 90.4-46.2 24.6-26.3 38.7-60.2 39.7-95.5-0.1-1.5-0.1-3 0-4.4v-2.2c0-20.2 6.4-38.9 17.9-52.6 12-14.3 28.9-22.2 47.5-22.2 16.1 0 31.9 5.8 44.5 16.4 12 10.1 20.6 24.1 24.3 39.7h0.4l0.3 1.3c4 18.8 6.1 38.1 6.1 57.3 0 36.1-3.6 64.8-11 87.8 33.6 0.1 130.8 0.6 135.5 0.8 25.2 1.1 43.4 11.6 55.7 32.2 8.1 13.6 11.7 29.2 10.6 45.3-0.7 7.3-14.8 72.8-27.8 131.6-1.1 4.9-25.9 117.2-28.1 122.8-5.8 12.1-14.7 22.4-25.6 29.7-11.9 7.9-19.4 11.4-32.6 11.4H328.3v0.1l-1.2-0.2z m-3.1-3.1H667.9c12.5 0 19.4-3.2 31-10.9 10.5-7 19-16.9 24.6-28.5 1.1-3 13.9-59.4 28.1-123.5 12.8-58.1 26.8-122.7 27.5-129.8 1.1-15.4-2.4-30.4-10.2-43.5-11.8-19.7-29.2-29.7-53.3-30.7h-0.2c-2.1-0.1-90.8-0.5-137.3-0.7H576l0.7-2c7.7-23 11.4-52 11.4-88.8 0-18.6-1.9-37.2-5.7-55.4h-0.3l-0.3-1.3c-7.2-32.4-34.4-55-66.2-55-17.7 0-33.8 7.5-45.2 21.1-11.1 13.2-17.2 31.2-17.2 50.7v2.3c0 1.4-0.1 2.8 0 4.2v0.2c-1 36.1-15.4 70.7-40.5 97.6-24.3 26-56.6 42.6-90.9 47l-0.5 347.1h2.7z" fill="#333333" p-id="1065"></path><path d="M794.4 77.2c21.6-5.3 42.3 1.4 55.6 18 12.7 15.8 15.4 37.2 6.8 54.5-22.4 45.1-82.5 92.2-88.3 95.8-3.6 2.2-6.8 3.1-10 3.1-3.8 0-7.4-1.3-11.3-3.2-7.9-3.9-69.8-57.4-87.2-92.7-7.6-15.3-8.2-31.8-1.7-46.7 6-13.7 17.2-23.9 30.7-27.9 28.4-8.4 41.4 5.2 52.8 13.9 11.3 8.8 36.8-10.9 52.6-14.8z m-35.9 171.4" fill="#00FCEF" p-id="1066"></path><path d="M758.5 250.1c-3.6 0-7.3-1-12-3.3-8-3.9-70.3-57.9-87.9-93.4-7.8-15.7-8.4-32.7-1.7-48 6.2-14.1 17.7-24.6 31.6-28.7 26.5-7.8 40 3 50.9 11.6 1.1 0.9 2.2 1.7 3.2 2.6 6.8 5.2 19.9-1.2 32.6-7.3 6.8-3.3 13.3-6.4 18.8-7.8 22.1-5.5 43.5 1.5 57.1 18.5 13 16.3 15.8 38.3 7 56.1-22.5 45.4-83 92.8-88.8 96.4-3.6 2.2-7.2 3.3-10.8 3.3zM705.7 77c-4.8 0-10.2 0.8-16.4 2.6-13.1 3.9-23.9 13.7-29.7 27.1-6.3 14.5-5.7 30.6 1.6 45.4 17.4 35 78.7 88.2 86.5 92 4.3 2.1 7.6 3 10.7 3 3.1 0 6.1-1 9.2-2.9 5.7-3.6 65.5-50.4 87.7-95.2 8.3-16.7 5.7-37.5-6.6-52.9-12.9-16.1-33.1-22.6-54-17.5-5.2 1.3-11.5 4.3-18.2 7.6-13.5 6.5-27.5 13.3-35.8 7-1.1-0.8-2.2-1.7-3.3-2.6-8.1-6.4-17.1-13.6-31.7-13.6z" fill="#333333" p-id="1067"></path></svg>