<?xml version="1.0" standalone="no"?><!DOCTYPE svg PUBLIC "-//W3C//DTD SVG 1.1//EN" "http://www.w3.org/Graphics/SVG/1.1/DTD/svg11.dtd"><svg t="1541122256455" class="icon" style="" viewBox="0 0 1024 1024" version="1.1" xmlns="http://www.w3.org/2000/svg" p-id="1199" xmlns:xlink="http://www.w3.org/1999/xlink" width="200" height="200"><defs><style type="text/css"></style></defs><path d="M704 540.8c-33.6 0-60.8 27.2-60.8 60.8v144c0 33.6 27.2 60.8 60.8 60.8s60.8-27.2 60.8-60.8v-84.8c67.2-116.8 48-260.8-46.4-355.2-54.4-54.4-128-84.8-206.4-84.8s-152 30.4-206.4 84.8c-94.4 94.4-112 238.4-44.8 353.6v84.8c0 33.6 27.2 60.8 60.8 60.8s60.8-27.2 60.8-60.8v-144c0-33.6-27.2-60.8-60.8-60.8-22.4 0-43.2 12.8-52.8 32-20.8-83.2 3.2-174.4 67.2-238.4 48-48 110.4-73.6 177.6-73.6s131.2 25.6 177.6 73.6c64 64 88 153.6 67.2 238.4-11.2-17.6-30.4-30.4-54.4-30.4z m-403.2 59.2c0-11.2 9.6-19.2 19.2-19.2s19.2 9.6 19.2 19.2v144c0 11.2-9.6 19.2-19.2 19.2s-19.2-9.6-19.2-19.2v-144z m424 144c0 11.2-9.6 19.2-19.2 19.2s-19.2-9.6-19.2-19.2v-144c0-11.2 9.6-19.2 19.2-19.2s19.2 9.6 19.2 19.2v144z" fill="#707070" p-id="1200"></path></svg>