<?xml version="1.0" standalone="no"?><!DOCTYPE svg PUBLIC "-//W3C//DTD SVG 1.1//EN" "http://www.w3.org/Graphics/SVG/1.1/DTD/svg11.dtd"><svg t="1539081346175" class="icon" style="" viewBox="0 0 1024 1024" version="1.1" xmlns="http://www.w3.org/2000/svg" p-id="6188" xmlns:xlink="http://www.w3.org/1999/xlink" width="200" height="200"><defs><style type="text/css"></style></defs><path d="M792.576 533.504l-572.8 52.608V183.424h572.8z" fill="#FB677E" p-id="6189"></path><path d="M506.112 883.712H219.776V586.112l286.336-52.608z" fill="#A16CF3" p-id="6190"></path><path d="M792.576 883.712H506.112V533.504l286.464-39.04z" fill="#479DF1" p-id="6191"></path><path d="M759.936 63.104H263.168c-112.896 0-204.416 91.264-204.416 204.16v497.024c0 112.768 91.52 204.16 204.416 204.16h496.768c112.896 0 204.416-91.52 204.416-204.16V267.264c0.128-112.896-91.392-204.16-204.416-204.16z m-58.112 609.536h-0.512c-2.56 32.896-25.984 61.696-59.904 68.48l-28.544 5.76c-24.32 4.864-45.952-2.048-60.16-16.896-10.88-11.648-17.408-27.52-17.408-46.464 0-15.104 6.016-30.336 15.872-42.496 0.512-0.512 1.024-1.28 1.536-1.792 9.856-11.136 22.784-19.456 36.864-22.272l52.864-10.624c15.36-3.328 26.24-16.64 26.24-32.384V381.568c0-8.32-7.552-14.72-15.872-13.184l-223.104 45.696c-7.808 1.536-13.696 8.32-13.696 16.384v284.8h-0.256c2.304 37.12-22.784 71.04-60.16 78.592l-33.152 6.784c-39.936 8.064-72.832-18.688-72.832-59.648V736c0-30.336 24.32-59.904 53.888-65.92l53.888-10.88c14.848-3.072 25.472-16.128 25.472-31.36V310.272c0-12.416 8.832-23.296 20.992-25.472l268.928-54.784c15.104-3.072 29.056 8.576 29.056 24.064v418.56z" fill="#FFFFFF" p-id="6192"></path></svg>