<?xml version="1.0" standalone="no"?><!DOCTYPE svg PUBLIC "-//W3C//DTD SVG 1.1//EN" "http://www.w3.org/Graphics/SVG/1.1/DTD/svg11.dtd"><svg t="1539160645298" class="icon" style="" viewBox="0 0 1024 1024" version="1.1" xmlns="http://www.w3.org/2000/svg" p-id="3514" xmlns:xlink="http://www.w3.org/1999/xlink" width="200" height="200"><defs><style type="text/css"></style></defs><path d="M319.123335 923.69637a102.8 147.2 44.999 1 0 208.168603-208.17587 102.8 147.2 44.999 1 0-208.168603 208.17587Z" fill="#54B0E6" p-id="3515"></path><path d="M555.8 82.9s132.1 117 201.5 255.3c61 121.4-39 342.8-35.1 341.2 0 0 113.8-271.8-159.5-398" fill="#43D8D6" p-id="3516"></path><path d="M769.2 332.3C699.4 193.3 570.1 77.9 564.6 73c-1.1-1-2.3-1.7-3.6-2.3-2.2-4.1-6.6-6.9-11.6-6.9-7.3 0-13.2 5.9-13.2 13.2v628.5c-45.4-44.6-132.7-30.4-195 31.9-29.7 29.7-49.6 65.9-56 101.9-6.7 37.8 2 71 24.6 93.6 17.9 17.9 42.4 26.5 69.5 26.5 41.3 0 88.3-20.1 126.1-57.9 29.7-29.7 49.6-65.9 56-101.9 2.4-13.4 2.8-26.2 1.4-38.2V296C667.7 346.1 724.6 424 732 527.7c3.8 53-6.9 99.9-14.6 125.7-1 2.6-1.9 5.3-2.9 8-6 16.4-7.8 21.3-1.2 27.6 2.5 2.4 5.8 3.7 9.2 3.7 1.7 0 3.5-0.3 5.2-1 3.2-1.3 5.7-3.9 7.1-7.1 0.4-1 4-9.7 8.3-24.2 52.5-147.7 61.3-258 26.1-328.1z m-234 462.8c-5.5 30.7-22.7 61.9-48.6 87.9-52.2 52.2-123.1 66.3-158.1 31.4-16.3-16.3-22.4-41.2-17.2-70.2 5.5-30.7 22.7-61.9 48.6-87.9 32.8-32.8 73-50.6 107-50.6 20.1 0 38.1 6.2 51 19.2 10 10 16.1 23.2 18.2 38.6v0.1c0 1.1 0.1 2.1 0.4 3.1 0.9 8.8 0.5 18.3-1.3 28.4zM756.8 511c-9.3-78.1-50.8-178.1-188.5-241.6-1.8-0.8-3.8-1.2-5.7-1.2V107.4c36.7 35.2 129.3 130.1 182.9 236.8 20.1 40 23.9 95.8 11.3 166.8z" fill="#2D415C" p-id="3517"></path></svg>