<?xml version="1.0" standalone="no"?><!DOCTYPE svg PUBLIC "-//W3C//DTD SVG 1.1//EN" "http://www.w3.org/Graphics/SVG/1.1/DTD/svg11.dtd"><svg t="1539052412614" class="icon" style="" viewBox="0 0 1024 1024" version="1.1" xmlns="http://www.w3.org/2000/svg" p-id="1923" xmlns:xlink="http://www.w3.org/1999/xlink" width="200" height="200"><defs><style type="text/css"></style></defs><path d="M945.38 334.91c-13.016-7.165-29.368-2.39-36.511 10.627L852.23 448.676c-4.396-26.531-11.39-52.54-21.14-77.763-2.343-6.061-4.881-12.012-7.507-17.912-0.141-0.318-0.291-0.631-0.432-0.949a388.821 388.821 0 0 0-6.244-13.264 400.752 400.752 0 0 0-2.984-5.932 391.27 391.27 0 0 0-3.602-6.816c-12.563-23.439-27.371-45.58-44.485-66.131-39.521-47.452-89.046-83.94-143.707-108.15-50.04-22.467-104.957-34.824-161.577-34.824-23.284 0-46.067 2.129-68.261 5.992-0.142 0.024-0.284 0.052-0.427 0.077a393.71 393.71 0 0 0-38.842 8.846c-2.233 0.626-4.467 1.238-6.693 1.905-2.962 0.891-5.9 1.833-8.832 2.791-1.32 0.43-2.648 0.808-3.965 1.253-1.194 0.403-2.35 0.878-3.539 1.291a404.623 404.623 0 0 0-19.891 7.53 397.628 397.628 0 0 0-7.302 3.076 401.992 401.992 0 0 0-12.965 5.871c-0.797 0.381-1.593 0.76-2.387 1.146-74.672 35.988-135.724 94.008-175.68 167.622-0.51 0.934-0.984 1.889-1.488 2.828-1.886 3.541-3.818 7.049-5.606 10.659-0.478 0.965-0.888 1.95-1.358 2.918-1.009 2.071-1.945 4.182-2.919 6.273-1.725 3.713-3.453 7.422-5.058 11.169-0.974 2.273-1.869 4.586-2.801 6.88-1.547 3.804-3.095 7.606-4.52 11.442-0.653 1.762-1.242 3.553-1.87 5.326-1.619 4.557-3.203 9.119-4.65 13.715-0.253 0.806-0.475 1.625-0.723 2.433-17.448 56.662-21.852 116.071-13.001 174.615 0.204 1.376 0.423 2.746 0.641 4.118 0.725 4.48 1.521 8.951 2.403 13.418a391.43 391.43 0 0 0 1.666 8.076c0.694 3.173 1.426 6.34 2.199 9.504 0.891 3.671 1.832 7.32 2.825 10.951a399.982 399.982 0 0 0 2.016 7.083 393.197 393.197 0 0 0 3.75 12.068c0.358 1.089 0.651 2.189 1.018 3.277 0.409 1.213 0.892 2.388 1.312 3.595a404.384 404.384 0 0 0 7.532 19.887 396.914 396.914 0 0 0 3.035 7.204 401.073 401.073 0 0 0 5.912 13.055c0.367 0.767 0.733 1.535 1.104 2.299 35.986 74.689 94.015 135.756 167.642 175.72 0.934 0.51 1.889 0.984 2.828 1.488 3.541 1.886 7.049 3.818 10.66 5.606 0.871 0.432 1.765 0.789 2.639 1.215 4.207 2.053 8.486 3.972 12.773 5.879 2.118 0.94 4.209 1.968 6.338 2.87a395.242 395.242 0 0 0 18.926 7.432c3.432 1.254 6.898 2.355 10.354 3.511 3.034 1.011 6.054 2.052 9.119 2.99 4.349 1.339 8.723 2.543 13.103 3.73 2.012 0.541 4.018 1.093 6.042 1.603a395.604 395.604 0 0 0 15.62 3.614c0.948 0.198 1.895 0.391 2.845 0.582 25.762 5.237 51.894 8.027 78.117 8.027 18.862 0 37.756-1.444 56.568-4.174a388.36 388.36 0 0 0 2.201-0.317 396.831 396.831 0 0 0 13.172-2.224c2.268-0.412 4.538-0.811 6.795-1.262 1.901-0.387 3.794-0.829 5.692-1.244 38.801-8.348 75.985-22.435 110.485-41.871 0.919-0.514 1.855-1.001 2.769-1.522 3.059-1.756 6.065-3.612 9.081-5.452 2.761-1.674 5.536-3.325 8.251-5.064 1.136-0.732 2.246-1.509 3.375-2.253 56.285-36.876 102.553-87.649 134.304-148.72 6.854-13.178 1.724-29.412-11.454-36.261-13.174-6.854-29.411-1.729-36.261 11.454a343.413 343.413 0 0 1-66.257 88.782c-0.132 0.123-0.288 0.202-0.418 0.328-15.387 14.795-31.962 27.951-49.457 39.476-0.972 0.636-1.919 1.306-2.897 1.933-2.356 1.518-4.767 2.935-7.156 4.393-2.601 1.578-5.179 3.188-7.826 4.698-0.804 0.461-1.628 0.884-2.435 1.338a345.964 345.964 0 0 1-58.349 25.94 349.755 349.755 0 0 1-32.061 9.132c-1.095 0.253-2.197 0.478-3.295 0.72a344.36 344.36 0 0 1-11.559 2.384c-3.197 0.59-6.407 1.124-9.626 1.625-1.697 0.27-3.394 0.548-5.092 0.793a346.812 346.812 0 0 1-48.192 3.383c-34.876 0-68.54-5.264-100.279-14.976-0.734-0.225-1.473-0.425-2.206-0.655-3.953-1.239-7.85-2.603-11.741-3.98-1.575-0.559-3.158-1.077-4.726-1.66-3.299-1.223-6.546-2.549-9.797-3.87-2.012-0.817-4.033-1.6-6.034-2.456-3.239-1.388-6.427-2.87-9.613-4.353-1.819-0.845-3.646-1.66-5.456-2.539a339.897 339.897 0 0 1-11.732-6.017c-0.814-0.433-1.639-0.849-2.448-1.287-62.74-34.265-113.663-87.54-144.993-152.029-0.281-0.584-0.565-1.169-0.843-1.755-1.819-3.798-3.537-7.65-5.218-11.523a340.969 340.969 0 0 1-5.733-14.116 355.308 355.308 0 0 1-5.403-15.243 350.445 350.445 0 0 1-3.182-10.243 336.515 336.515 0 0 1-1.786-6.275 348.299 348.299 0 0 1-2.414-9.36 335.422 335.422 0 0 1-1.917-8.286 342.87 342.87 0 0 1-1.434-6.953 340.727 340.727 0 0 1-2.636-15.188 344.575 344.575 0 0 1-3.755-50.582c0-34.876 5.264-68.54 14.976-100.279 0.225-0.734 0.425-1.473 0.655-2.206 1.239-3.953 2.603-7.85 3.98-11.741 0.559-1.575 1.077-3.158 1.66-4.726 1.223-3.299 2.549-6.546 3.87-9.797 0.817-2.012 1.6-4.033 2.456-6.034 1.388-3.239 2.869-6.427 4.353-9.613 0.845-1.819 1.66-3.646 2.538-5.456a339.897 339.897 0 0 1 6.017-11.732c0.433-0.814 0.849-1.639 1.287-2.448 34.258-62.727 87.518-113.641 151.989-144.973 0.614-0.296 1.229-0.593 1.845-0.886 3.766-1.802 7.586-3.507 11.427-5.174a345.35 345.35 0 0 1 6.097-2.569 353.393 353.393 0 0 1 17.206-6.52 334.713 334.713 0 0 1 6.731-2.282 336.645 336.645 0 0 1 7.396-2.337c2.044-0.616 4.112-1.178 6.172-1.757 10.978-3.068 22.037-5.612 33.153-7.542 0.199-0.035 0.398-0.073 0.597-0.107 67.553-11.607 136.837-2.413 198.55 24.898 68.452 30.709 126.296 83.362 162.649 150.441 1.157 2.156 2.317 4.309 3.429 6.491a345.346 345.346 0 0 1 2.269 4.51c6.649 13.538 12.469 27.546 17.355 42.018 0.104 0.31 0.282 0.571 0.397 0.874 7.376 22.04 12.372 44.721 15.123 67.817l-114.403-62.822c-13.025-7.16-29.363-2.385-36.511 10.627-7.152 13.016-2.394 29.363 10.627 36.511l165.996 91.154a26.728 26.728 0 0 0 12.916 3.326c2.629 0 5.207-0.471 7.706-1.218 7.04-1.74 13.371-6.241 17.136-13.098l91.154-165.991c7.155-13.019 2.397-29.366-10.623-36.513z" fill="#4D4D4D" p-id="1924"></path></svg>